<svg height="512pt" viewBox="-44 0 512 512" width="512pt" xmlns="http://www.w3.org/2000/svg"><path d="m397.242188 397.242188h8.828124c9.75 0 17.652344-7.90625 17.652344-17.65625v-123.585938c0-48.753906-39.519531-88.277344-88.273437-88.277344h-247.171875c-48.753906 0-88.277344 39.523438-88.277344 88.277344v123.585938c0 9.75 7.90625 17.65625 17.65625 17.65625zm0 0" fill="#4f6f7f"/><path d="m70.621094 379.585938h-26.484375c-9.75 0-17.652344 7.90625-17.652344 17.65625s7.902344 17.65625 17.652344 17.65625h335.449219c9.75 0 17.65625-7.90625 17.65625-17.65625s-7.90625-17.65625-17.65625-17.65625zm0 0" fill="#394f63"/><path d="m203.035156 141.242188c-4.875 0-8.828125-3.953126-8.828125-8.828126v-44.136718c0-4.875 3.953125-8.828125 8.828125-8.828125s8.828125 3.953125 8.828125 8.828125v44.136718c0 4.875-3.953125 8.828126-8.828125 8.828126zm0 0" fill="#394f63"/><path d="m114.757812 397.242188c14.625 0 26.484376 11.855468 26.484376 26.480468v61.792969c0 14.628906-11.859376 26.484375-26.484376 26.484375s-26.480468-11.855469-26.480468-26.484375v-61.792969c0-14.625 11.855468-26.480468 26.480468-26.480468zm0 0" fill="#ec9130"/><path d="m167.722656 397.242188c14.628906 0 26.484375 11.855468 26.484375 26.480468v61.792969c0 14.628906-11.855469 26.484375-26.484375 26.484375-14.625 0-26.480468-11.855469-26.480468-26.484375v-61.792969c0-14.625 11.855468-26.480468 26.480468-26.480468zm0 0" fill="#f6ab27"/><path d="m185.378906 264.828125c0 24.375-19.761718 44.136719-44.136718 44.136719-24.378907 0-44.140626-19.761719-44.140626-44.136719 0-24.378906 19.761719-44.136719 44.140626-44.136719 24.375 0 44.136718 19.757813 44.136718 44.136719zm0 0" fill="#fedebb"/><path d="m176.550781 308.964844h-70.621093c-19.5 0-35.308594 15.808594-35.308594 35.3125v35.308594c-.035156-8.09375 5.4375-15.175782 13.28125-17.183594 7.839844-2.003906 16.042968 1.582031 19.898437 8.699218 3.855469 7.117188 2.375 15.945313-3.589843 21.417969l1.210937 8.445313c8.15625-4.871094 18.308594-4.96875 26.558594-.253906 8.25 4.714843 13.316406 13.511718 13.261719 23.011718-.058594-9.5 5.011718-18.296875 13.261718-23.011718 8.25-4.714844 18.402344-4.617188 26.558594.253906l1.210938-8.445313c-5.964844-5.472656-7.445313-14.300781-3.589844-21.417969 3.855468-7.117187 12.054687-10.703124 19.898437-8.699218 7.839844 2.007812 13.316407 9.089844 13.28125 17.183594v-35.308594c0-19.503906-15.808593-35.3125-35.3125-35.3125zm0 0" fill="#48a8dc"/><path d="m97.101562 388.414062c-4.875 0-8.824218-3.953124-8.824218-8.828124v-26.484376c0-4.875 3.949218-8.824218 8.824218-8.824218 4.878907 0 8.828126 3.949218 8.828126 8.824218v26.484376c0 4.875-3.949219 8.828124-8.828126 8.828124zm0 0" fill="#3193c6"/><path d="m185.378906 388.414062c-4.875 0-8.828125-3.953124-8.828125-8.828124v-26.484376c0-4.875 3.953125-8.824218 8.828125-8.824218s8.828125 3.949218 8.828125 8.824218v26.484376c0 4.875-3.953125 8.828124-8.828125 8.828124zm0 0" fill="#3193c6"/><path d="m308.964844 512c-14.625 0-26.480469-11.855469-26.480469-26.484375v-61.792969c0-14.625 11.855469-26.480468 26.480469-26.480468s26.484375 11.855468 26.484375 26.480468v61.792969c0 14.628906-11.859375 26.484375-26.484375 26.484375zm0 0" fill="#00ad97"/><path d="m256 512c-14.625 0-26.484375-11.855469-26.484375-26.484375v-61.792969c0-14.625 11.859375-26.480468 26.484375-26.480468s26.484375 11.855468 26.484375 26.480468v61.792969c0 14.628906-11.859375 26.484375-26.484375 26.484375zm0 0" fill="#25c3aa"/><path d="m326.621094 264.828125c0 24.375-19.761719 44.136719-44.136719 44.136719-24.378906 0-44.140625-19.761719-44.140625-44.136719 0-24.378906 19.761719-44.136719 44.140625-44.136719 24.375 0 44.136719 19.757813 44.136719 44.136719zm0 0" fill="#fedebb"/><path d="m247.171875 308.964844h70.621094c19.5 0 35.308593 15.808594 35.308593 35.3125v35.308594c.039063-8.09375-5.4375-15.175782-13.277343-17.183594-7.84375-2.003906-16.046875 1.582031-19.902344 8.699218-3.851563 7.117188-2.375 15.945313 3.589844 21.417969l-1.207031 8.445313c-8.160157-4.871094-18.308594-4.96875-26.558594-.253906-8.25 4.714843-13.320313 13.511718-13.261719 23.011718.054687-9.5-5.011719-18.296875-13.261719-23.011718-8.253906-4.714844-18.402344-4.617188-26.5625.253906l-1.207031-8.445313c5.964844-5.472656 7.445313-14.300781 3.589844-21.417969-3.855469-7.117187-12.058594-10.703124-19.898438-8.699218-7.84375 2.007812-13.316406 9.089844-13.28125 17.183594v-35.308594c0-19.503906 15.808594-35.3125 35.308594-35.3125zm0 0" fill="#ff6c77"/><path d="m317.792969 388.414062c-4.875 0-8.828125-3.953124-8.828125-8.828124v-26.484376c0-4.875 3.953125-8.824218 8.828125-8.824218s8.828125 3.949218 8.828125 8.824218v26.484376c0 4.875-3.953125 8.828124-8.828125 8.828124zm0 0" fill="#e76573"/><path d="m247.171875 388.414062c-4.875 0-8.828125-3.953124-8.828125-8.828124v-26.484376c0-4.875 3.953125-8.824218 8.828125-8.824218s8.828125 3.949218 8.828125 8.824218v26.484376c0 4.875-3.953125 8.828124-8.828125 8.828124zm0 0" fill="#e76573"/><path d="m185.378906 35.308594h35.3125c4.875 0 8.824219 3.953125 8.824219 8.828125v35.3125c0 4.875-3.949219 8.828125-8.824219 8.828125h-35.3125c-4.875 0-8.828125-3.953125-8.828125-8.828125v-35.3125c0-4.875 3.953125-8.828125 8.828125-8.828125zm0 0" fill="#a5b4b4"/><path d="m185.378906 0h35.3125v35.308594h-35.3125zm0 0" fill="#919d9e"/><path d="m167.722656 167.722656c0-19.5 15.808594-35.308594 35.3125-35.308594 19.5 0 35.308594 15.808594 35.308594 35.308594zm0 0" fill="#a5b4b4"/><g fill="#fedebb"><path d="m211.863281 379.585938c0 9.75-7.90625 17.65625-17.65625 17.65625s-17.65625-7.90625-17.65625-17.65625 7.90625-17.65625 17.65625-17.65625 17.65625 7.90625 17.65625 17.65625zm0 0"/><path d="m105.929688 379.585938c0 9.75-7.902344 17.65625-17.652344 17.65625-9.753906 0-17.65625-7.90625-17.65625-17.65625s7.902344-17.65625 17.65625-17.65625c9.75 0 17.652344 7.90625 17.652344 17.65625zm0 0"/><path d="m247.171875 379.585938c0 9.75-7.902344 17.65625-17.65625 17.65625-9.75 0-17.652344-7.90625-17.652344-17.65625s7.902344-17.65625 17.652344-17.65625c9.753906 0 17.65625 7.90625 17.65625 17.65625zm0 0"/><path d="m353.101562 379.585938c0 9.75-7.902343 17.65625-17.652343 17.65625s-17.65625-7.90625-17.65625-17.65625 7.90625-17.65625 17.65625-17.65625 17.652343 7.90625 17.652343 17.65625zm0 0"/></g></svg>